<svg xmlns="http://www.w3.org/2000/svg" width="52" height="53" fill="none"><path fill="#E6A40B" d="M48 14.884c0-1.106.895-2.003 2-2.003s2 .897 2 2.003a2.001 2.001 0 0 1-2 2.003c-1.105 0-2-.897-2-2.003ZM48 2.867c0-1.107.895-2.003 2-2.003s2 .896 2 2.003a2.001 2.001 0 0 1-2 2.002c-1.105 0-2-.896-2-2.002ZM24 38.92c0-1.107.895-2.004 2-2.004s2 .897 2 2.003a2.001 2.001 0 0 1-2 2.003c-1.105 0-2-.896-2-2.003ZM24 26.902c0-1.106.895-2.003 2-2.003s2 .897 2 2.003a2.001 2.001 0 0 1-2 2.003c-1.105 0-2-.897-2-2.003ZM24 14.884c0-1.106.895-2.003 2-2.003s2 .897 2 2.003a2.001 2.001 0 0 1-2 2.003c-1.105 0-2-.897-2-2.003ZM24 2.867c0-1.107.895-2.003 2-2.003s2 .896 2 2.003a2.001 2.001 0 0 1-2 2.002c-1.105 0-2-.896-2-2.002ZM36 38.92c0-1.107.895-2.004 2-2.004s2 .897 2 2.003a2.001 2.001 0 0 1-2 2.003c-1.105 0-2-.896-2-2.003ZM36 26.902c0-1.106.895-2.003 2-2.003s2 .897 2 2.003a2.001 2.001 0 0 1-2 2.003c-1.105 0-2-.897-2-2.003ZM36 14.884c0-1.106.895-2.003 2-2.003s2 .897 2 2.003a2.001 2.001 0 0 1-2 2.003c-1.105 0-2-.897-2-2.003ZM36 2.867c0-1.107.895-2.003 2-2.003s2 .896 2 2.003a2.001 2.001 0 0 1-2 2.002c-1.105 0-2-.896-2-2.002ZM12 50.937c0-1.106.895-2.003 2-2.003s2 .897 2 2.003a2.001 2.001 0 0 1-2 2.003c-1.105 0-2-.897-2-2.003ZM12 38.92c0-1.107.895-2.004 2-2.004s2 .897 2 2.003a2.001 2.001 0 0 1-2 2.003c-1.105 0-2-.896-2-2.003ZM12 26.902c0-1.106.895-2.003 2-2.003s2 .897 2 2.003a2.001 2.001 0 0 1-2 2.003c-1.105 0-2-.897-2-2.003ZM12 14.884c0-1.106.895-2.003 2-2.003s2 .897 2 2.003a2.001 2.001 0 0 1-2 2.003c-1.105 0-2-.897-2-2.003ZM12 2.867c0-1.107.895-2.003 2-2.003s2 .896 2 2.003a2.001 2.001 0 0 1-2 2.002c-1.105 0-2-.896-2-2.002ZM0 50.937c0-1.106.895-2.003 2-2.003s2 .897 2 2.003a2.001 2.001 0 0 1-2 2.003c-1.105 0-2-.897-2-2.003ZM0 38.92c0-1.107.895-2.004 2-2.004s2 .897 2 2.003a2.001 2.001 0 0 1-2 2.003c-1.105 0-2-.896-2-2.003ZM0 26.902c0-1.106.895-2.003 2-2.003s2 .897 2 2.003a2.001 2.001 0 0 1-2 2.003c-1.105 0-2-.897-2-2.003ZM0 14.884c0-1.106.895-2.003 2-2.003s2 .897 2 2.003a2.002 2.002 0 0 1-2 2.003c-1.105 0-2-.897-2-2.003ZM0 2.867C0 1.76.895.864 2 .864s2 .896 2 2.003a2.001 2.001 0 0 1-2 2.002c-1.105 0-2-.896-2-2.002Z"/></svg>