<svg xmlns="http://www.w3.org/2000/svg" width="52" height="53" fill="none"><path fill="#E6A40B" d="M4 38.116a2.001 2.001 0 0 1-2 2.003c-1.105 0-2-.897-2-2.003s.895-2.003 2-2.003 2 .897 2 2.003ZM4 50.134a2.002 2.002 0 0 1-2 2.003c-1.105 0-2-.897-2-2.003s.895-2.003 2-2.003 2 .897 2 2.003ZM28 14.08a2.001 2.001 0 0 1-2 2.004c-1.105 0-2-.897-2-2.003s.895-2.003 2-2.003 2 .897 2 2.003ZM28 26.099a2.001 2.001 0 0 1-2 2.002c-1.105 0-2-.896-2-2.002 0-1.107.895-2.003 2-2.003s2 .896 2 2.003ZM28 38.116a2.001 2.001 0 0 1-2 2.003c-1.105 0-2-.897-2-2.003s.895-2.003 2-2.003 2 .897 2 2.003ZM28 50.134a2.001 2.001 0 0 1-2 2.003c-1.105 0-2-.897-2-2.003s.895-2.003 2-2.003 2 .897 2 2.003ZM16 14.08a2.001 2.001 0 0 1-2 2.004c-1.105 0-2-.897-2-2.003s.895-2.003 2-2.003 2 .897 2 2.003ZM16 26.099a2.001 2.001 0 0 1-2 2.002c-1.105 0-2-.896-2-2.002 0-1.107.895-2.003 2-2.003s2 .896 2 2.003ZM16 38.116a2.001 2.001 0 0 1-2 2.003c-1.105 0-2-.897-2-2.003s.895-2.003 2-2.003 2 .897 2 2.003ZM16 50.134a2.001 2.001 0 0 1-2 2.003c-1.105 0-2-.897-2-2.003s.895-2.003 2-2.003 2 .897 2 2.003ZM40 2.063a2.001 2.001 0 0 1-2 2.003c-1.105 0-2-.897-2-2.003S36.895.06 38 .06s2 .897 2 2.003ZM40 14.08a2.001 2.001 0 0 1-2 2.004c-1.105 0-2-.897-2-2.003s.895-2.003 2-2.003 2 .897 2 2.003ZM40 26.099a2.001 2.001 0 0 1-2 2.002c-1.105 0-2-.896-2-2.002 0-1.107.895-2.003 2-2.003s2 .896 2 2.003ZM40 38.116a2.001 2.001 0 0 1-2 2.003c-1.105 0-2-.897-2-2.003s.895-2.003 2-2.003 2 .897 2 2.003ZM40 50.134a2.001 2.001 0 0 1-2 2.003c-1.105 0-2-.897-2-2.003s.895-2.003 2-2.003 2 .897 2 2.003ZM52 2.063a2.001 2.001 0 0 1-2 2.003c-1.105 0-2-.897-2-2.003S48.895.06 50 .06s2 .897 2 2.003ZM52 14.08a2.001 2.001 0 0 1-2 2.004c-1.105 0-2-.897-2-2.003s.895-2.003 2-2.003 2 .897 2 2.003ZM52 26.099a2.001 2.001 0 0 1-2 2.002c-1.105 0-2-.896-2-2.002 0-1.107.895-2.003 2-2.003s2 .896 2 2.003ZM52 38.116a2.001 2.001 0 0 1-2 2.003c-1.105 0-2-.897-2-2.003s.895-2.003 2-2.003 2 .897 2 2.003ZM52 50.134a2.001 2.001 0 0 1-2 2.003c-1.105 0-2-.897-2-2.003s.895-2.003 2-2.003 2 .897 2 2.003Z"/></svg>